<svg width="32" height="32" viewBox="0 0 32 32" fill="none" xmlns="http://www.w3.org/2000/svg">
<path fill-rule="evenodd" clip-rule="evenodd" d="M16 18.8295L23.0707 25.9001C23.4459 26.2753 23.9547 26.4861 24.4853 26.4861C25.0159 26.4861 25.5248 26.2753 25.9 25.9001C26.2752 25.525 26.486 25.0161 26.486 24.4855C26.486 23.9549 26.2752 23.446 25.9 23.0708L18.8267 16.0001L25.8987 8.92948C26.0844 8.7437 26.2316 8.52317 26.3321 8.28048C26.4326 8.03778 26.4842 7.77767 26.4842 7.51501C26.4841 7.25234 26.4323 6.99226 26.3317 6.74961C26.2312 6.50696 26.0838 6.2865 25.898 6.10081C25.7122 5.91512 25.4917 5.76785 25.249 5.66738C25.0063 5.56692 24.7462 5.51525 24.4835 5.51531C24.2209 5.51537 23.9608 5.56717 23.7181 5.66774C23.4755 5.76832 23.255 5.9157 23.0693 6.10148L16 13.1721L8.92933 6.10148C8.74493 5.91038 8.52431 5.75791 8.28035 5.65298C8.0364 5.54805 7.77398 5.49275 7.50843 5.49032C7.24287 5.48789 6.97949 5.53837 6.73365 5.63881C6.48781 5.73926 6.26444 5.88766 6.07657 6.07535C5.88869 6.26305 5.74008 6.48628 5.6394 6.73203C5.53873 6.97777 5.488 7.24111 5.49018 7.50666C5.49236 7.77222 5.54741 8.03469 5.65211 8.27874C5.75681 8.5228 5.90907 8.74356 6.1 8.92815L13.1733 16.0001L6.10133 23.0721C5.9104 23.2567 5.75815 23.4775 5.65344 23.7215C5.54874 23.9656 5.49369 24.2281 5.49151 24.4936C5.48933 24.7592 5.54006 25.0225 5.64074 25.2683C5.74141 25.514 5.89003 25.7372 6.0779 25.9249C6.26577 26.1126 6.48914 26.261 6.73498 26.3615C6.98082 26.4619 7.2442 26.5124 7.50976 26.51C7.77532 26.5075 8.03773 26.4522 8.28169 26.3473C8.52565 26.2424 8.74626 26.0899 8.93067 25.8988L16 18.8295Z" fill="#6B6B6B"/>
</svg>
