<svg width="48" height="48" viewBox="0 0 48 48" fill="none" xmlns="http://www.w3.org/2000/svg">
<path d="M7.05298 10H29.053V4H7.05298V10Z" fill="#FF7A7A" stroke="#FF7A7A" stroke-width="2" stroke-linejoin="round"/>
<path d="M29.053 10C35.573 17.1227 39.3136 21.2507 40.275 22.384C41.718 24.084 41.112 26.004 37.5 26.004C33.888 26.004 31.805 20.719 29.053 20.719C29.037 20.7163 29.036 27.4753 29.05 40.996C29.0506 41.3902 28.9736 41.7807 28.8232 42.1451C28.6729 42.5095 28.4522 42.8408 28.1738 43.1198C27.8953 43.3989 27.5646 43.6204 27.2006 43.7716C26.8365 43.9228 26.4462 44.0007 26.052 44.001H26.049C25.6544 44.001 25.2637 43.9233 24.8992 43.7722C24.5346 43.6212 24.2034 43.3998 23.9245 43.1208C23.6455 42.8417 23.4243 42.5105 23.2734 42.1459C23.1225 41.7813 23.0448 41.3906 23.045 40.996V32.986C15.0716 31.778 10.737 31.1113 10.041 30.986C8.99698 30.799 7.05298 29.802 7.05298 26.933V10H29.053Z" stroke="#FF7A7A" stroke-width="2" stroke-linejoin="round"/>
</svg>
