<svg width="24" height="24" viewBox="0 0 24 24" fill="none" xmlns="http://www.w3.org/2000/svg">
<path d="M5.50833 2.00001C5.04734 1.99902 4.59068 2.08909 4.16458 2.26505C3.73849 2.44101 3.35134 2.69939 3.02536 3.02537C2.69939 3.35135 2.441 3.73849 2.26504 4.16459C2.08908 4.59069 1.99901 5.04734 2 5.50834V18.4917C1.99901 18.9527 2.08908 19.4093 2.26504 19.8354C2.441 20.2615 2.69939 20.6487 3.02536 20.9746C3.35134 21.3006 3.73849 21.559 4.16458 21.735C4.59068 21.9109 5.04734 22.001 5.50833 22H18.4917C18.9527 22.001 19.4093 21.9109 19.8354 21.735C20.2615 21.559 20.6487 21.3006 20.9746 20.9746C21.3006 20.6487 21.559 20.2615 21.735 19.8354C21.9109 19.4093 22.001 18.9527 22 18.4917V17.5808C21.8858 17.5917 21.7683 17.5975 21.6483 17.5975C19.5008 17.5975 18.2925 15.8092 18.24 13.5708C18.2369 13.374 18.243 13.1771 18.2583 12.9808C18.3358 11.9925 18.6542 11.1133 19.1792 10.4625C19.4907 10.0713 19.8886 9.75751 20.3417 9.54584C20.7317 9.34834 21.2808 9.24001 21.7283 9.24001H21.7475C21.8317 9.24001 21.9158 9.24334 22 9.24834V5.50917C22.0011 5.04811 21.9111 4.59136 21.7352 4.16517C21.5593 3.73898 21.3009 3.35173 20.9749 3.02566C20.6489 2.6996 20.2618 2.44114 19.8356 2.26513C19.4095 2.08912 18.9527 1.99902 18.4917 2.00001H5.50833ZM5.67333 6.65251H9.14417L12.1342 13.6817L15.1258 6.65251H18.3458V6.77417L18.33 6.77751C17.7425 6.91084 17.4442 7.10834 17.4442 7.82251H17.4417L17.4442 16.3842C17.4942 16.9475 17.7975 17.1217 18.33 17.2425L18.3467 17.2458V17.3667H14.2442V17.2458L14.26 17.2417C14.7925 17.1217 15.0883 16.9475 15.1383 16.3833V8.05584L11.1842 17.3475H10.9667L7.125 8.30751V16.1783C7.125 16.8925 7.42333 17.09 8.01083 17.2225L8.0275 17.2258V17.3483H5.67083V17.2258L5.68667 17.2225C6.27417 17.0892 6.57417 16.8917 6.57417 16.1783V7.82251C6.57417 7.10834 6.27583 6.91084 5.6875 6.77751L5.6725 6.77417L5.67333 6.65251ZM21.715 9.70917C20.81 9.72834 20.2708 10.8117 20.2042 12.3125H22V9.74834C21.907 9.72339 21.8113 9.71023 21.715 9.70917ZM20.1633 12.7358C20.08 14.1992 20.88 15.435 22 15.7642V12.7358H20.1633Z" fill="#333333"/>
</svg>
