<svg width="24" height="24" viewBox="0 0 24 24" fill="none" xmlns="http://www.w3.org/2000/svg">
<path fill-rule="evenodd" clip-rule="evenodd" d="M12.293 7.29279C12.4806 7.10532 12.7349 7 13 7C13.2652 7 13.5195 7.10532 13.707 7.29279L17.707 11.2928C17.8945 11.4803 17.9998 11.7346 17.9998 11.9998C17.9998 12.265 17.8945 12.5193 17.707 12.7068L13.707 16.7068C13.5184 16.8889 13.2658 16.9897 13.0036 16.9875C12.7414 16.9852 12.4906 16.88 12.3052 16.6946C12.1198 16.5092 12.0146 16.2584 12.0124 15.9962C12.0101 15.734 12.1109 15.4814 12.293 15.2928L15.586 11.9998L12.293 8.70679C12.1056 8.51926 12.0002 8.26495 12.0002 7.99979C12.0002 7.73462 12.1056 7.48031 12.293 7.29279Z" fill="#FF7A7A"/>
<path fill-rule="evenodd" clip-rule="evenodd" d="M6.29303 7.29279C6.48056 7.10532 6.73487 7 7.00003 7C7.26519 7 7.5195 7.10532 7.70703 7.29279L11.707 11.2928C11.8945 11.4803 11.9998 11.7346 11.9998 11.9998C11.9998 12.265 11.8945 12.5193 11.707 12.7068L7.70703 16.7068C7.51843 16.8889 7.26583 16.9897 7.00363 16.9875C6.74143 16.9852 6.49062 16.88 6.30521 16.6946C6.1198 16.5092 6.01463 16.2584 6.01236 15.9962C6.01008 15.734 6.11087 15.4814 6.29303 15.2928L9.58603 11.9998L6.29303 8.70679C6.10556 8.51926 6.00024 8.26495 6.00024 7.99979C6.00024 7.73462 6.10556 7.48031 6.29303 7.29279Z" fill="#FF7A7A"/>
</svg>
