<svg width="32" height="32" viewBox="0 0 32 32" fill="none" xmlns="http://www.w3.org/2000/svg">
<path d="M20.7901 4.03625C19.5739 2.72313 17.8751 2 16.0001 2C14.1151 2 12.4107 2.71875 11.2001 4.02375C9.97636 5.34312 9.38011 7.13625 9.52011 9.0725C9.79761 12.8925 12.7045 16 16.0001 16C19.2957 16 22.1976 12.8931 22.4795 9.07375C22.6214 7.155 22.0214 5.36563 20.7901 4.03625ZM27.0001 30H5.00011C4.71215 30.0037 4.42698 29.9433 4.16534 29.8229C3.9037 29.7026 3.67218 29.5254 3.48761 29.3044C3.08136 28.8188 2.91761 28.1556 3.03886 27.485C3.56636 24.5588 5.21261 22.1006 7.80011 20.375C10.0989 18.8431 13.0107 18 16.0001 18C18.9895 18 21.9014 18.8438 24.2001 20.375C26.7876 22.1 28.4339 24.5581 28.9614 27.4844C29.0826 28.155 28.9189 28.8181 28.5126 29.3037C28.3281 29.5249 28.0966 29.7022 27.835 29.8226C27.5733 29.9431 27.2881 30.0037 27.0001 30Z" fill="#312255"/>
</svg>
