<svg width="32" height="32" viewBox="0 0 32 32" fill="none" xmlns="http://www.w3.org/2000/svg">
<path fill-rule="evenodd" clip-rule="evenodd" d="M10.9994 2.61611C10.9927 2.39732 10.9431 2.18198 10.8532 1.9824C10.7633 1.78281 10.635 1.60288 10.4756 1.45288C10.3162 1.30288 10.1288 1.18574 9.92413 1.10817C9.71945 1.0306 9.50149 0.994106 9.28271 1.00077L5.04537 1.13011L4.99737 1.13211C3.9828 1.19028 3.02583 1.62258 2.3115 2.34541C1.59717 3.06823 1.17622 4.03025 1.13004 5.04544L1.00004 9.28211C0.986603 9.72396 1.14924 10.153 1.45217 10.475C1.75511 10.7969 2.17352 10.9853 2.61537 10.9988C3.05722 11.0122 3.48632 10.8496 3.80825 10.5466C4.13019 10.2437 4.3186 9.82529 4.33204 9.38344L4.46004 5.17611C4.47337 4.99051 4.55317 4.81594 4.68481 4.68442C4.81645 4.55291 4.9911 4.47326 5.17671 4.46011L9.38404 4.33211C9.60283 4.32547 9.81816 4.27579 10.0178 4.18593C10.2173 4.09606 10.3973 3.96776 10.5473 3.80835C10.6973 3.64894 10.8144 3.46154 10.892 3.25686C10.9695 3.05218 11.006 2.83489 10.9994 2.61611ZM29.384 21.0008C29.1653 20.9941 28.9473 21.0306 28.7426 21.1082C28.5379 21.1857 28.3505 21.3029 28.1911 21.4529C28.0317 21.6029 27.9034 21.7828 27.8136 21.9824C27.7237 22.182 27.674 22.3973 27.6674 22.6161L27.5394 26.8234C27.5261 27.0089 27.4464 27.1834 27.3149 27.3149C27.1833 27.4464 27.0089 27.5261 26.8234 27.5394L22.616 27.6674C22.1742 27.6809 21.7558 27.8693 21.4528 28.1912C21.1499 28.5132 20.9873 28.9423 21.0007 29.3841C21.0141 29.826 21.2026 30.2444 21.5245 30.5473C21.8464 30.8502 22.2755 31.0129 22.7174 30.9994L26.9547 30.8701L27.0027 30.8681C28.0173 30.8099 28.9743 30.3776 29.6886 29.6548C30.4029 28.932 30.8239 27.97 30.87 26.9548L30.9994 22.7174C31.006 22.4987 30.9695 22.2807 30.892 22.076C30.8144 21.8713 30.6973 21.6839 30.5473 21.5245C30.3973 21.3651 30.2173 21.2368 30.0177 21.147C29.8182 21.0571 29.6028 21.0074 29.384 21.0008ZM22.7174 1.00077C22.4986 0.99412 22.2806 1.03062 22.076 1.1082C21.8713 1.18578 21.6839 1.30291 21.5245 1.45291C21.3651 1.6029 21.2368 1.78283 21.1469 1.98241C21.057 2.182 21.0074 2.39732 21.0007 2.61611C20.9941 2.83489 21.0306 3.05284 21.1081 3.25751C21.1857 3.46219 21.3028 3.64958 21.4528 3.80899C21.6028 3.96839 21.7828 4.0967 21.9823 4.18657C22.1819 4.27644 22.3973 4.32612 22.616 4.33277L26.8227 4.46077C27.0083 4.47393 27.183 4.55357 27.3146 4.68509C27.4462 4.8166 27.526 4.99117 27.5394 5.17677L27.6674 9.38411C27.6808 9.82596 27.8692 10.2444 28.1912 10.5473C28.5131 10.8502 28.9422 11.0129 29.384 10.9994C29.8259 10.986 30.2443 10.7976 30.5472 10.4757C30.8502 10.1537 31.0128 9.72462 30.9994 9.28277L30.87 5.04477L30.868 4.99677C30.8097 3.98232 30.3773 3.02551 29.6545 2.31132C28.9317 1.59712 27.9698 1.17627 26.9547 1.13011L22.7174 1.00077ZM2.61604 21.0008C2.83483 20.9941 3.05278 21.0306 3.25746 21.1082C3.46214 21.1857 3.64954 21.3029 3.80895 21.4529C3.96836 21.6029 4.09666 21.7828 4.18653 21.9824C4.2764 22.182 4.32607 22.3973 4.33271 22.6161L4.46071 26.8234C4.47402 27.0089 4.55373 27.1834 4.68523 27.3149C4.81673 27.4464 4.99121 27.5261 5.17671 27.5394L9.38404 27.6674C9.82589 27.6809 10.2443 27.8693 10.5472 28.1912C10.8502 28.5132 11.0128 28.9423 10.9994 29.3841C10.9859 29.826 10.7975 30.2444 10.4756 30.5473C10.1536 30.8502 9.72456 31.0129 9.28271 30.9994L5.04537 30.8701L4.99737 30.8681C3.9828 30.8099 3.02583 30.3776 2.3115 29.6548C1.59717 28.932 1.17622 27.97 1.13004 26.9548L1.00004 22.7181C0.993374 22.4993 1.02987 22.2814 1.10744 22.0767C1.18501 21.872 1.30214 21.6846 1.45214 21.5252C1.60214 21.3658 1.78208 21.2375 1.98166 21.1476C2.18125 21.0578 2.39659 21.0081 2.61537 21.0014L2.61604 21.0008ZM22.0067 19.2774C22.876 17.8969 23.336 16.2982 23.3334 14.6668C23.3334 9.88011 19.4534 6.00011 14.6667 6.00011C9.88004 6.00011 6.00004 9.88011 6.00004 14.6668C6.00004 19.4534 9.88004 23.3334 14.6667 23.3334C16.3614 23.3334 17.942 22.8468 19.2774 22.0068L19.5814 22.3734C20.248 23.1774 20.904 23.9688 21.6334 24.7494C22.3547 25.5214 23.4454 25.6174 24.2087 24.8874C24.44 24.6663 24.6663 24.4401 24.8874 24.2088C25.6174 23.4454 25.5214 22.3548 24.7494 21.6334C23.9687 20.9041 23.1767 20.2481 22.3727 19.5814L22.0067 19.2774ZM14.6667 9.66677C14.0101 9.66677 13.3599 9.7961 12.7533 10.0474C12.1467 10.2986 11.5955 10.6669 11.1312 11.1312C10.6669 11.5955 10.2986 12.1467 10.0473 12.7534C9.79604 13.36 9.66671 14.0102 9.66671 14.6668C9.66671 15.3234 9.79604 15.9736 10.0473 16.5802C10.2986 17.1868 10.6669 17.738 11.1312 18.2023C11.5955 18.6666 12.1467 19.0349 12.7533 19.2862C13.3599 19.5374 14.0101 19.6668 14.6667 19.6668C15.9928 19.6668 17.2646 19.14 18.2022 18.2023C19.1399 17.2646 19.6667 15.9929 19.6667 14.6668C19.6667 13.3407 19.1399 12.0689 18.2022 11.1312C17.2646 10.1936 15.9928 9.66677 14.6667 9.66677Z" fill="#312255"/>
</svg>
