<svg width="25" height="25" viewBox="0 0 25 25" fill="none" xmlns="http://www.w3.org/2000/svg">
<path d="M15.149 2.89657L21.4477 9.19657C21.8168 9.56555 22.0695 10.0347 22.1745 10.546C22.2795 11.0572 22.2321 11.588 22.0384 12.0726L18.885 19.9566C18.7081 20.3979 18.4164 20.7839 18.0402 21.0746C17.6639 21.3653 17.2167 21.5501 16.745 21.6099L9.97304 22.4566C9.79881 22.477 9.61659 22.5019 9.42637 22.5312L8.83437 22.6272L8.52504 22.6832L7.56104 22.8699L6.90104 23.0099L5.9077 23.2339L4.63437 23.5379L2.56504 24.0659L1.7037 24.2979C1.48634 24.3577 1.25744 24.3619 1.03801 24.3102C0.818578 24.2586 0.615627 24.1526 0.447767 24.0022C0.279906 23.8517 0.152508 23.6615 0.0772521 23.449C0.00199636 23.2365 -0.0187083 23.0085 0.0170362 22.7859L0.0623694 22.5912L0.455703 21.1086L0.807703 19.7112L1.1117 18.4379L1.33437 17.4446L1.47437 16.7832L1.66237 15.8206L1.76904 15.2112L1.85437 14.6406L2.73437 7.60057C2.79426 7.12871 2.97927 6.68146 3.27021 6.30518C3.56115 5.9289 3.94744 5.63729 4.38904 5.46057L12.273 2.30723C12.7576 2.11345 13.2884 2.06613 13.7996 2.17112C14.3109 2.27612 14.7801 2.52748 15.149 2.89657ZM10.2024 10.3699C9.86551 10.707 9.62513 11.1282 9.50625 11.5896C9.38736 12.0511 9.39431 12.536 9.52637 12.9939C9.42916 13.0508 9.33956 13.1198 9.2597 13.1992L3.84904 18.6099C3.81358 18.6459 3.78907 18.6912 3.77837 18.7406L3.6597 19.2539L3.42237 20.2446L3.3077 20.7126C3.29597 20.7576 3.2962 20.8049 3.30839 20.8497C3.32058 20.8946 3.34429 20.9355 3.37718 20.9684C3.41006 21.0013 3.45098 21.025 3.49586 21.0372C3.54074 21.0494 3.58803 21.0496 3.63304 21.0379L4.58904 20.8046L5.60637 20.5672C5.65541 20.5559 5.70025 20.531 5.7357 20.4952L11.1464 15.0846C11.2257 15.0051 11.2947 14.916 11.3517 14.8192C11.8035 14.9491 12.2816 14.9573 12.7376 14.8428C13.1935 14.7284 13.6111 14.4955 13.9481 14.1677C14.285 13.8398 14.5293 13.4288 14.6562 12.9761C14.7831 12.5235 14.788 12.0453 14.6706 11.5901C14.5531 11.135 14.3174 10.7189 13.9874 10.3841C13.6573 10.0494 13.2447 9.80784 12.7912 9.68396C12.3377 9.56008 11.8595 9.55828 11.4051 9.67874C10.9507 9.7992 10.5363 10.0376 10.2037 10.3699H10.2024ZM16.413 0.391233C16.6425 0.161468 16.9478 0.0233138 17.2719 0.00269316C17.5959 -0.0179275 17.9163 0.0804022 18.173 0.279233L18.2984 0.391233L23.9557 6.04723C24.1974 6.28662 24.3384 6.60933 24.3499 6.9493C24.3615 7.28927 24.2426 7.62079 24.0177 7.87601C23.7929 8.13123 23.4789 8.29084 23.1402 8.32217C22.8015 8.35351 22.4636 8.2542 22.1957 8.04457L22.069 7.93257L16.413 2.27657C16.1631 2.02653 16.0227 1.68745 16.0227 1.3339C16.0227 0.980348 16.1631 0.64127 16.413 0.391233Z" fill="#312255"/>
</svg>
