<svg width="32" height="32" viewBox="0 0 32 32" fill="none" xmlns="http://www.w3.org/2000/svg">
<path d="M24.71 14.48C25.51 13.18 26 11.66 26 10C26 6.31 23.78 2.78 20.46 2.1C20 2 18 2 18 2H4C2.9 2 2 2.9 2 4V28C2 29.1 2.9 30 4 30C5.1 30 6 29.1 6 28V6H18C18 6 19 6 19.35 6.09C20.95 6.5 22 8.2 22 10C22 11.8 20.89 13.34 19.35 13.91C18.56 14.2 18 14.92 18 15.78V16.03C18 17.19 18.95 18.06 20 17.99H22C24.21 17.99 26 19.78 26 21.99C26 24.2 24.21 25.99 22 25.99H14V11.99C14 10.89 13.1 9.99 12 9.99C10.9 9.99 10 10.89 10 11.99V27.99C10 29.09 10.9 29.99 12 29.99H22C26.42 29.99 30 26.41 30 21.99C30 18.52 27.79 15.58 24.71 14.47V14.48Z" fill="#F7F7F7"/>
</svg>
